# xmcd
#
# Track frame offsets: 
#        150
#        21597
#        45125
#        54267
#        69510
#        89942
#        96312
#        114167
#        138570
#        171925
#
# Disc length: 2517 seconds
#
# Revision: 2
# Processed by: cddbd v1.5.1PL0 Copyright (c) Steve Scherf et al.
# Submitted via: ExactAudioCopy v0.95b2
#
DISCID=8709d30a
DTITLE=Dale Thompson - Speak into the Machine
DYEAR=1900
DGENRE=Blues
TTITLE0=Dark
TTITLE1=Sleep
TTITLE2=War
TTITLE3=Pig song
TTITLE4=Priest
TTITLE5=Sarah
TTITLE6=Psalms
TTITLE7=One shot
TTITLE8=Shower scene
TTITLE9=Butter fly
EXTD=\nURL: http://musiccentral.msn.com/MCGen/ReEntry?theurl=http%3A//
EXTD=musiccentral.msn.com/Search/DoFullSearch%3FArtists%3Don%26Albums%
EXTD=3D%26Songs%3D%26ArticleTitles%3D%26FullText%3D%26strInput%3DIn%25
EXTD=20God%2520We%2520Trust "http://musiccentral.msn.com/MCGen/ReEntry
EXTD=?theurl=http://musiccentral.msn.com/Search/DoFullSearch?Artists=o
EXTD=n&Albums=&Songs=&ArticleTitles=&FullText=&strInput=In%20God%20We%
EXTD=20Trust"
EXTT0=Dark\n
EXTT1=Sleep\n
EXTT2=War\n
EXTT3=Ping song
EXTT4=Priest
EXTT5=Sarah
EXTT6=P Salms
EXTT7=One short
EXTT8=Shower scene
EXTT9=Buther fly
PLAYORDER=
